<svg version="1.2" xmlns="http://www.w3.org/2000/svg" viewBox="0 0 42 42" width="42" height="42">
	<style>
		.s0 { fill: #01f9c6 } 
	</style>
	<path class="s0" d="m40.75 2.87c0-1.59-1.28-2.87-2.87-2.87h-33.01c-1.59 0-2.87 1.28-2.87 2.87v36.26c0 1.58 1.28 2.87 2.87 2.87h33.01c1.59 0 2.87-1.29 2.87-2.87 0 0 0-36.26 0-36.26zm-23.48 35.12h-9.35v-8.59h9.35zm0-12.79h-9.35v-8.4h9.35zm0-12.6h-9.35v-8.59h9.35zm10.75 25.51l-5.02-5.02 2.14-2.14 2.88 2.88 4.51-4.51 2.14 2.14zm0-12.72l-5.02-5.02 2.14-2.14 2.88 2.88 4.52-4.51 2.14 2.14zm0-12.72l-5.02-5.02 2.13-2.14 2.89 2.89 4.51-4.52 2.14 2.14z"/>
</svg>