<svg version="1.2" xmlns="http://www.w3.org/2000/svg" viewBox="0 0 42 42" width="42" height="42">
	<style>
		.s0 { fill: #01f9c6 } 
	</style>
	<g>
		<g>
			<path class="s0" d="m37.55 27.01l-1.91 0.35-7.64 1.39v2.16c0 1.05-0.85 1.91-1.91 1.91h-10.18c-1.06 0-1.91-0.86-1.91-1.91v-2.16l-7.64-1.39-1.91-0.35-1.9-0.35v13.16c0 1.05 0.85 1.91 1.9 1.91h33.1c1.05 0 1.9-0.86 1.9-1.91v-13.16z"/>
		</g>
	</g>
	<g>
		<g>
			<path class="s0" d="m40.09 8.64h-9.54v-1.91-1.91-1.91c0-1.06-0.86-1.91-1.91-1.91h-15.28c-1.05 0-1.91 0.85-1.91 1.91v1.91 1.91 1.91h-9.54c-1.06 0-1.91 0.85-1.91 1.91v10.18c0 0.92 0.66 1.71 1.57 1.88l2.75 0.5 0.93 0.17 8.75 1.59v-1.6c0-1.05 0.85-1.91 1.91-1.91h10.18c1.06 0 1.91 0.86 1.91 1.91v1.6l8.75-1.59 0.93-0.17 2.75-0.5c0.91-0.17 1.57-0.96 1.57-1.88v-10.18c0-1.06-0.85-1.91-1.91-1.91zm-13.36-1.91v1.91h-11.46v-1.91-1.91h11.46z"/>
		</g>
	</g>
</svg>