<svg version="1.2" xmlns="http://www.w3.org/2000/svg" viewBox="0 0 42 42" width="42" height="42">
	<style>
		.s0 { fill: #01f9c6 } 
	</style>
	<g>
		<g>
			<g>
				<path class="s0" d="m20.94 3.54c-5.6 0-10.16 4.55-10.16 10.15 0 5.6 4.56 10.16 10.16 10.16 5.6 0 10.15-4.56 10.15-10.16 0-5.6-4.55-10.15-10.15-10.15zm0 19.04c-4.9 0-8.89-3.99-8.89-8.89 0-4.9 3.99-8.88 8.89-8.88 4.9 0 8.88 3.98 8.88 8.88 0 4.9-3.98 8.89-8.88 8.89z"/>
				<path class="s0" d="m30.2 1l2.53 2.54-2.04 2.04c-2.33-2.8-5.84-4.58-9.75-4.58-7 0-12.7 5.69-12.7 12.69 0 3.92 1.79 7.43 4.59 9.76l-0.78 0.77-1.9-1.9-9.15 9.14 5.34 5.35 4.44-4.45 2.54 2.54 3.81-3.81v5.45c0 2.1 1.71 3.81 3.81 3.81 2.1 0 3.81-1.71 3.81-3.81v-7.61h1.27v-1.27h-1.27v-1.86c4.85-1.53 8.44-5.9 8.83-11.16l4.81-4.81 2.22 2.22v-11.05zm-13.06 26.66h-1.27v1.27h1.27v0.37l-3.81 3.81-2.54-2.54-4.44 4.44-3.55-3.55 7.36-7.35 1.9 1.91 1.8-1.8q1.51 1.02 3.28 1.58zm6.34 8.89c0 1.4-1.13 2.54-2.53 2.54-1.4 0-2.54-1.14-2.54-2.54v-7.62h5.07zm0-8.88h-5.07v-1.53q1.23 0.25 2.54 0.26 1.3-0.01 2.53-0.26zm-2.53-2.54c-6.3 0-11.43-5.12-11.43-11.42 0-6.3 5.13-11.43 11.43-11.43 6.29 0 11.42 5.13 11.42 11.43 0 6.3-5.13 11.42-11.42 11.42zm18.4-16.13l-0.95-0.95-4.8 4.8c-0.16-2.29-0.91-4.43-2.13-6.23l3.07-3.07-1.27-1.27h6.08z"/>
				<path class="s0" d="m20.94 9.63c-1.48-1.35-3.78-1.31-5.21 0.12-1.47 1.48-1.47 3.87 0 5.34l5.21 5.21 5.21-5.21c1.47-1.47 1.47-3.86 0-5.34-1.43-1.43-3.73-1.47-5.21-0.12zm4.31 4.57l-4.31 4.31-4.31-4.31c-0.98-0.98-0.98-2.57 0-3.55 0.49-0.49 1.13-0.73 1.77-0.73 0.64 0 1.28 0.24 1.77 0.73l0.77 0.77 0.76-0.77c0.98-0.98 2.57-0.98 3.55 0 0.98 0.98 0.98 2.57 0 3.55z"/>
				<path class="s0" d="m34.27 23.21c-3.5 0-6.35 2.85-6.35 6.35 0 3.5 2.85 6.35 6.35 6.35 3.5 0 6.34-2.85 6.34-6.35 0-3.5-2.84-6.35-6.34-6.35zm0 11.43c-2.8 0-5.08-2.28-5.08-5.08 0-2.8 2.28-5.08 5.08-5.08 2.8 0 5.07 2.28 5.07 5.08 0 2.8-2.27 5.08-5.07 5.08z"/>
				<path class="s0" d="m33.63 27.66h1.27c0.35 0 0.64 0.28 0.64 0.63h1.27c0-1.05-0.86-1.9-1.91-1.9v-1.27h-1.27v1.27c-1.05 0-1.9 0.85-1.9 1.9 0 1.05 0.85 1.91 1.9 1.91h1.27c0.35 0 0.64 0.28 0.64 0.63 0 0.35-0.29 0.63-0.64 0.63h-1.27c-0.35 0-0.63-0.28-0.63-0.63h-1.27c0 1.05 0.85 1.9 1.9 1.9v1.27h1.27v-1.27c1.05 0 1.91-0.85 1.91-1.9 0-1.05-0.86-1.9-1.91-1.9h-1.27c-0.35 0-0.63-0.29-0.63-0.64 0-0.35 0.28-0.63 0.63-0.63z"/>
			</g>
		</g>
	</g>
</svg>