<svg version="1.2" xmlns="http://www.w3.org/2000/svg" viewBox="0 0 42 42" width="42" height="42">
	<style>
		.s0 { fill: #01f9c6 } 
	</style>
	<g>
		<g>
			<path class="s0" d="m41.34 33.58c0.37 0 0.66-0.29 0.66-0.66v-23.14q0-0.27-0.19-0.47l-7.02-7.01q-0.19-0.19-0.46-0.2h-14.78v-0.13c0-1.08-0.88-1.97-1.97-1.97h-15.61c-1.08 0-1.97 0.89-1.97 1.97v21.22c0 1.09 0.89 1.97 1.97 1.97h5.04v16.18c0 0.37 0.3 0.66 0.66 0.66h33.67c0.37 0 0.66-0.29 0.66-0.66v-4.91c0-0.36-0.29-0.66-0.66-0.66-0.36 0-0.66 0.3-0.66 0.66v4.25h-32.35v-15.52h9.25c1.09 0 1.97-0.88 1.97-1.97v-11.31c0-0.36-0.29-0.66-0.65-0.66-0.37 0-0.66 0.3-0.66 0.66v11.31c0 0.36-0.3 0.66-0.66 0.66h-15.61c-0.36 0-0.65-0.3-0.65-0.66v-21.22c0-0.36 0.29-0.65 0.65-0.65h15.61c0.36 0 0.66 0.29 0.66 0.65v6.4c0 0.37 0.29 0.66 0.66 0.66 0.36 0 0.65-0.29 0.65-0.66v-4.95h14.12q0 0.02 0 0.04v6.32c0 0.36 0.29 0.65 0.66 0.65h6.31q0.02 0 0.04 0v22.49c0 0.37 0.3 0.66 0.66 0.66zm-6.35-24.46v-4.77l4.76 4.77z"/>
		</g>
	</g>
	<g>
		<g>
			<path class="s0" d="m16.27 30.16h-4.39c-0.36 0-0.66 0.3-0.66 0.66 0 0.36 0.3 0.66 0.66 0.66h4.39c0.36 0 0.65-0.3 0.65-0.66 0-0.36-0.29-0.66-0.65-0.66z"/>
		</g>
	</g>
	<g>
		<g>
			<path class="s0" d="m16.27 33.67h-4.39c-0.36 0-0.66 0.29-0.66 0.66 0 0.36 0.3 0.66 0.66 0.66h4.39c0.36 0 0.65-0.3 0.65-0.66 0-0.37-0.29-0.66-0.65-0.66z"/>
		</g>
	</g>
	<g>
		<g>
			<path class="s0" d="m29.42 20.34c-2.69 0-5.2 1.07-7.06 3.01-0.25 0.26-0.24 0.68 0.02 0.93 0.26 0.25 0.68 0.24 0.93-0.02 1.61-1.68 3.78-2.6 6.11-2.6 4.66 0 8.46 3.79 8.46 8.46 0 4.66-3.8 8.46-8.46 8.46-4.67 0-8.46-3.8-8.46-8.46q0-2.08 0.95-3.91c0.17-0.32 0.04-0.72-0.28-0.88-0.32-0.17-0.72-0.05-0.89 0.28-0.72 1.38-1.1 2.94-1.1 4.51 0 5.39 4.39 9.78 9.78 9.78 5.39 0 9.77-4.39 9.77-9.78 0-5.39-4.38-9.78-9.77-9.78z"/>
		</g>
	</g>
	<g>
		<g>
			<path class="s0" d="m30.92 29.55l-1.02-0.03v-3.65h2.32c0.37 0 0.66-0.3 0.66-0.66 0-0.36-0.29-0.66-0.66-0.66h-2.32v-0.74c0-0.37-0.29-0.66-0.66-0.66-0.36 0-0.66 0.29-0.66 0.66v0.74h-0.65c-1.09 0-1.98 0.89-1.98 1.97v2.28c0 1.09 0.88 1.97 1.97 1.98l0.66 0.02v3.57h-1.97c-0.36 0-0.66 0.3-0.66 0.66 0 0.36 0.3 0.66 0.66 0.66h1.97v0.74c0 0.37 0.3 0.66 0.66 0.66 0.37 0 0.66-0.29 0.66-0.66v-0.74h1.01c1.09 0 1.97-0.89 1.97-1.98v-2.19c0-1.08-0.88-1.97-1.96-1.97zm-2.34-0.07l-0.63-0.02q-0.01 0-0.02 0c-0.37 0-0.66-0.29-0.66-0.66v-2.28c0-0.36 0.29-0.65 0.66-0.65h0.65c0 0 0 3.61 0 3.61zm2.99 4.23c0 0.37-0.3 0.66-0.66 0.66h-1.01v-3.54l0.99 0.03q0.01 0 0.02 0c0.36 0 0.66 0.3 0.66 0.66z"/>
		</g>
	</g>
	<g>
		<g>
			<path class="s0" d="m16.79 2.1h-14.03c-0.36 0-0.66 0.3-0.66 0.66v3.51c0 0.36 0.3 0.66 0.66 0.66h14.03c0.36 0 0.66-0.3 0.66-0.66v-3.51c0-0.36-0.3-0.66-0.66-0.66zm-0.66 3.51h-12.71v-2.19h12.71c0 0 0 2.19 0 2.19z"/>
		</g>
	</g>
	<g>
		<g>
			<path class="s0" d="m5.57 7.72h-2.81c-0.36 0-0.66 0.29-0.66 0.65v2.81c0 0.36 0.3 0.66 0.66 0.66h2.81c0.36 0 0.66-0.3 0.66-0.66v-2.81c0-0.36-0.3-0.65-0.66-0.65zm-0.66 2.8h-1.49v-1.49h1.49z"/>
		</g>
	</g>
	<g>
		<g>
			<path class="s0" d="m11.18 7.72h-2.81c-0.36 0-0.65 0.29-0.65 0.65v2.81c0 0.36 0.29 0.66 0.65 0.66h2.81c0.36 0 0.66-0.3 0.66-0.66v-2.81c0-0.36-0.3-0.65-0.66-0.65zm-0.66 2.8h-1.49v-1.49h1.49z"/>
		</g>
	</g>
	<g>
		<g>
			<path class="s0" d="m16.79 7.72h-2.8c-0.37 0-0.66 0.29-0.66 0.65v2.81c0 0.36 0.29 0.66 0.66 0.66h2.8c0.36 0 0.66-0.3 0.66-0.66v-2.81c0-0.36-0.3-0.65-0.66-0.65zm-0.66 2.8h-1.49v-1.49h1.49z"/>
		</g>
	</g>
	<g>
		<g>
			<path class="s0" d="m5.57 13.33h-2.81c-0.36 0-0.66 0.29-0.66 0.66v2.8c0 0.36 0.3 0.66 0.66 0.66h2.81c0.36 0 0.66-0.3 0.66-0.66v-2.8c0-0.37-0.3-0.66-0.66-0.66zm-0.66 2.8h-1.49v-1.49h1.49z"/>
		</g>
	</g>
	<g>
		<g>
			<path class="s0" d="m11.18 13.33h-2.81c-0.36 0-0.65 0.29-0.65 0.66v2.8c0 0.36 0.29 0.66 0.65 0.66h2.81c0.36 0 0.66-0.3 0.66-0.66v-2.8c0-0.37-0.3-0.66-0.66-0.66zm-0.66 2.8h-1.49v-1.49h1.49z"/>
		</g>
	</g>
	<g>
		<g>
			<path class="s0" d="m5.57 18.94h-2.81c-0.36 0-0.66 0.29-0.66 0.66v2.8c0 0.37 0.3 0.66 0.66 0.66h2.81c0.36 0 0.66-0.29 0.66-0.66v-2.8c0-0.37-0.3-0.66-0.66-0.66zm-0.66 2.81h-1.49v-1.5h1.49z"/>
		</g>
	</g>
	<g>
		<g>
			<path class="s0" d="m11.18 18.94h-2.81c-0.36 0-0.65 0.29-0.65 0.66v2.8c0 0.37 0.29 0.66 0.65 0.66h2.81c0.36 0 0.66-0.29 0.66-0.66v-2.8c0-0.37-0.3-0.66-0.66-0.66zm-0.66 2.81h-1.49v-1.5h1.49z"/>
		</g>
	</g>
	<g>
		<g>
			<path class="s0" d="m16.79 13.33h-2.8c-0.37 0-0.66 0.29-0.66 0.66v8.41c0 0.37 0.29 0.66 0.66 0.66h2.8c0.36 0 0.66-0.29 0.66-0.66v-8.41c0-0.37-0.3-0.66-0.66-0.66zm-0.66 8.42h-1.49v-7.11h1.49z"/>
		</g>
	</g>
	<g>
		<g>
			<path class="s0" d="m38.99 15.51l-3.58-3.4c-0.27-0.25-0.68-0.24-0.93 0.02-0.25 0.26-0.24 0.68 0.02 0.93l3.09 2.94-0.54 0.54-9.46-9.45q-0.14-0.14-0.33-0.18l-2.44-0.49-1.17-1.29c-0.25-0.27-0.66-0.29-0.93-0.05-0.27 0.24-0.29 0.66-0.05 0.93 0 0 1.36 1.48 1.4 1.51l0.43 2.14q0.04 0.2 0.18 0.34l10.48 10.48c0.38 0.38 0.89 0.58 1.39 0.58 0.51 0 1.01-0.2 1.4-0.58q0 0 0 0l0.12-0.12c0.77-0.77 0.77-2.03 0-2.79l-0.09-0.1 1.02-1.02c0.26-0.26 0.25-0.69-0.01-0.94zm-13.24-6.3l-0.26-1.32 1.31 0.27 6.34 6.34-1.05 1.05zm11.39 10.21l-0.12 0.13c-0.26 0.25-0.68 0.25-0.93 0l-3.07-3.07 1.05-1.06 3.07 3.07c0.26 0.26 0.26 0.68 0 0.93z"/>
		</g>
	</g>
</svg>